{
	"asset":{
		"generator":"Khronos glTF Blender I/O v5.0.21",
		"version":"2.0"
	},
	"scene":0,
	"scenes":[
		{
			"name":"Scene",
			"nodes":[
				0
			]
		}
	],
	"nodes":[
		{
			"mesh":0,
			"name":"Cube.003"
		}
	],
	"materials":[
		{
			"doubleSided":true,
			"name":"M_Net",
			"pbrMetallicRoughness":{
				"baseColorFactor":[
					0.800000011920929,
					0.800000011920929,
					0.800000011920929,
					1
				],
				"metallicFactor":0,
				"roughnessFactor":0.5
			}
		}
	],
	"meshes":[
		{
			"name":"Cube.005",
			"primitives":[
				{
					"attributes":{
						"POSITION":0,
						"NORMAL":1
					},
					"indices":2,
					"material":0
				}
			]
		}
	],
	"accessors":[
		{
			"bufferView":0,
			"componentType":5126,
			"count":10038,
			"max":[
				0.2702285051345825,
				1.9250074625015259,
				3.151078939437866
			],
			"min":[
				-0.2697772979736328,
				1.5998181104660034,
				-3.165012836456299
			],
			"type":"VEC3"
		},
		{
			"bufferView":1,
			"componentType":5126,
			"count":10038,
			"type":"VEC3"
		},
		{
			"bufferView":2,
			"componentType":5123,
			"count":23316,
			"type":"SCALAR"
		}
	],
	"bufferViews":[
		{
			"buffer":0,
			"byteLength":120456,
			"byteOffset":0,
			"target":34962
		},
		{
			"buffer":0,
			"byteLength":120456,
			"byteOffset":120456,
			"target":34962
		},
		{
			"buffer":0,
			"byteLength":46632,
			"byteOffset":240912,
			"target":34963
		}
	],
	"buffers":[
		{
			"byteLength":287544,
			"uri":"Net.bin"
		}
	]
}
