{
	"asset":{
		"generator":"Khronos glTF Blender I/O v5.0.21",
		"version":"2.0"
	},
	"scene":0,
	"scenes":[
		{
			"name":"Scene",
			"nodes":[
				0
			]
		}
	],
	"nodes":[
		{
			"mesh":0,
			"name":"Sphere"
		}
	],
	"materials":[
		{
			"doubleSided":true,
			"name":"M_Turtle",
			"pbrMetallicRoughness":{
				"baseColorFactor":[
					0.800000011920929,
					0.800000011920929,
					0.800000011920929,
					1
				],
				"metallicFactor":0,
				"roughnessFactor":0.5
			}
		}
	],
	"meshes":[
		{
			"name":"Sphere",
			"primitives":[
				{
					"attributes":{
						"POSITION":0,
						"NORMAL":1,
						"TEXCOORD_0":2
					},
					"indices":3,
					"material":0
				}
			]
		}
	],
	"accessors":[
		{
			"bufferView":0,
			"componentType":5126,
			"count":5889,
			"max":[
				4.888852119445801,
				1.932523488998413,
				6.226152420043945
			],
			"min":[
				-4.888849258422852,
				-3.1931309700012207,
				-6.3862624168396
			],
			"type":"VEC3"
		},
		{
			"bufferView":1,
			"componentType":5126,
			"count":5889,
			"type":"VEC3"
		},
		{
			"bufferView":2,
			"componentType":5126,
			"count":5889,
			"type":"VEC2"
		},
		{
			"bufferView":3,
			"componentType":5123,
			"count":9024,
			"type":"SCALAR"
		}
	],
	"bufferViews":[
		{
			"buffer":0,
			"byteLength":70668,
			"byteOffset":0,
			"target":34962
		},
		{
			"buffer":0,
			"byteLength":70668,
			"byteOffset":70668,
			"target":34962
		},
		{
			"buffer":0,
			"byteLength":47112,
			"byteOffset":141336,
			"target":34962
		},
		{
			"buffer":0,
			"byteLength":18048,
			"byteOffset":188448,
			"target":34963
		}
	],
	"buffers":[
		{
			"byteLength":206496,
			"uri":"Turtle.bin"
		}
	]
}
