{
	"asset":{
		"generator":"Khronos glTF Blender I/O v5.0.21",
		"version":"2.0"
	},
	"scene":0,
	"scenes":[
		{
			"name":"Scene",
			"nodes":[
				0
			]
		}
	],
	"nodes":[
		{
			"mesh":0,
			"name":"Sphere.001"
		}
	],
	"materials":[
		{
			"doubleSided":true,
			"name":"M_TurtlePitch",
			"pbrMetallicRoughness":{
				"baseColorTexture":{
					"index":0
				},
				"metallicFactor":0,
				"roughnessFactor":0.5
			}
		}
	],
	"meshes":[
		{
			"name":"Sphere.001",
			"primitives":[
				{
					"attributes":{
						"POSITION":0,
						"NORMAL":1,
						"TEXCOORD_0":2
					},
					"indices":3,
					"material":0
				}
			]
		}
	],
	"textures":[
		{
			"sampler":0,
			"source":0
		}
	],
	"images":[
		{
			"mimeType":"image/png",
			"name":"T_Turtle",
			"uri":"T_Turtle.png"
		}
	],
	"accessors":[
		{
			"bufferView":0,
			"componentType":5126,
			"count":97,
			"max":[
				3.0187113285064697,
				1.6294636726379395,
				3.8813188076019287
			],
			"min":[
				-3.018709659576416,
				1.6294636726379395,
				-3.943314552307129
			],
			"type":"VEC3"
		},
		{
			"bufferView":1,
			"componentType":5126,
			"count":97,
			"type":"VEC3"
		},
		{
			"bufferView":2,
			"componentType":5126,
			"count":97,
			"type":"VEC2"
		},
		{
			"bufferView":3,
			"componentType":5123,
			"count":480,
			"type":"SCALAR"
		}
	],
	"bufferViews":[
		{
			"buffer":0,
			"byteLength":1164,
			"byteOffset":0,
			"target":34962
		},
		{
			"buffer":0,
			"byteLength":1164,
			"byteOffset":1164,
			"target":34962
		},
		{
			"buffer":0,
			"byteLength":776,
			"byteOffset":2328,
			"target":34962
		},
		{
			"buffer":0,
			"byteLength":960,
			"byteOffset":3104,
			"target":34963
		}
	],
	"samplers":[
		{
			"magFilter":9729,
			"minFilter":9987
		}
	],
	"buffers":[
		{
			"byteLength":4064,
			"uri":"TurtlePitch.bin"
		}
	]
}
