{
	"asset":{
		"generator":"Khronos glTF Blender I/O v5.0.21",
		"version":"2.0"
	},
	"extensionsUsed":[
		"KHR_materials_specular"
	],
	"scene":0,
	"scenes":[
		{
			"name":"Scene",
			"nodes":[
				0
			]
		}
	],
	"nodes":[
		{
			"mesh":0,
			"name":"Cylinder.016",
			"rotation":[
				-0.1830127090215683,
				0.1830126941204071,
				-0.6830126643180847,
				0.6830127239227295
			],
			"scale":[
				5.080630779266357,
				3.923239231109619,
				5.649463653564453
			],
			"translation":[
				-0.0593719482421875,
				0.003875732421875,
				0.07414722442626953
			]
		}
	],
	"materials":[
		{
			"doubleSided":true,
			"name":"M_Leaves",
			"pbrMetallicRoughness":{
				"baseColorTexture":{
					"index":0
				},
				"metallicFactor":0
			}
		},
		{
			"doubleSided":true,
			"extensions":{
				"KHR_materials_specular":{
					"specularFactor":0
				}
			},
			"name":"M_Trunk",
			"pbrMetallicRoughness":{
				"baseColorTexture":{
					"index":1
				},
				"metallicFactor":0
			}
		}
	],
	"meshes":[
		{
			"name":"Cylinder.034",
			"primitives":[
				{
					"attributes":{
						"POSITION":0,
						"NORMAL":1,
						"TEXCOORD_0":2
					},
					"indices":3,
					"material":0
				},
				{
					"attributes":{
						"POSITION":4,
						"NORMAL":5,
						"TEXCOORD_0":6
					},
					"indices":7,
					"material":1
				}
			]
		}
	],
	"textures":[
		{
			"sampler":0,
			"source":0
		},
		{
			"sampler":1,
			"source":1
		}
	],
	"images":[
		{
			"mimeType":"image/png",
			"name":"WillowLeaves",
			"uri":"WillowLeaves.png"
		},
		{
			"mimeType":"image/png",
			"name":"T_Trunk",
			"uri":"T_Trunk.png"
		}
	],
	"accessors":[
		{
			"bufferView":0,
			"componentType":5126,
			"count":9605,
			"max":[
				-0.944580078125,
				10.53824520111084,
				8.207595825195312
			],
			"min":[
				-19.06170082092285,
				-9.082176208496094,
				-15.216352462768555
			],
			"type":"VEC3"
		},
		{
			"bufferView":1,
			"componentType":5126,
			"count":9605,
			"type":"VEC3"
		},
		{
			"bufferView":2,
			"componentType":5126,
			"count":9605,
			"type":"VEC2"
		},
		{
			"bufferView":3,
			"componentType":5123,
			"count":14688,
			"type":"SCALAR"
		},
		{
			"bufferView":4,
			"componentType":5126,
			"count":13270,
			"max":[
				2.227048873901367,
				10.661763191223145,
				6.381738662719727
			],
			"min":[
				-17.382373809814453,
				-7.176076889038086,
				-13.584196090698242
			],
			"type":"VEC3"
		},
		{
			"bufferView":5,
			"componentType":5126,
			"count":13270,
			"type":"VEC3"
		},
		{
			"bufferView":6,
			"componentType":5126,
			"count":13270,
			"type":"VEC2"
		},
		{
			"bufferView":7,
			"componentType":5123,
			"count":17616,
			"type":"SCALAR"
		}
	],
	"bufferViews":[
		{
			"buffer":0,
			"byteLength":115260,
			"byteOffset":0,
			"target":34962
		},
		{
			"buffer":0,
			"byteLength":115260,
			"byteOffset":115260,
			"target":34962
		},
		{
			"buffer":0,
			"byteLength":76840,
			"byteOffset":230520,
			"target":34962
		},
		{
			"buffer":0,
			"byteLength":29376,
			"byteOffset":307360,
			"target":34963
		},
		{
			"buffer":0,
			"byteLength":159240,
			"byteOffset":336736,
			"target":34962
		},
		{
			"buffer":0,
			"byteLength":159240,
			"byteOffset":495976,
			"target":34962
		},
		{
			"buffer":0,
			"byteLength":106160,
			"byteOffset":655216,
			"target":34962
		},
		{
			"buffer":0,
			"byteLength":35232,
			"byteOffset":761376,
			"target":34963
		}
	],
	"samplers":[
		{
			"magFilter":9729,
			"minFilter":9987
		},
		{
			"magFilter":9728,
			"minFilter":9984
		}
	],
	"buffers":[
		{
			"byteLength":796608,
			"uri":"Tree_Willow.bin"
		}
	]
}
